<?xml version="1.0" standalone="no"?>
<!DOCTYPE svg PUBLIC "-//W3C//DTD SVG 20010904//EN"
 "http://www.w3.org/TR/2001/REC-SVG-20010904/DTD/svg10.dtd">
<svg version="1.0" xmlns="http://www.w3.org/2000/svg"
 width="180.000000pt" height="180.000000pt" viewBox="0 0 180.000000 180.000000"
 preserveAspectRatio="xMidYMid meet">
<metadata>
Created by potrace 1.14, written by Peter Selinger 2001-2017
</metadata>
<g transform="translate(0.000000,180.000000) scale(0.100000,-0.100000)"
fill="#000000" stroke="none">
<path d="M0 900 l0 -900 900 0 900 0 0 900 0 900 -900 0 -900 0 0 -900z m810
730 c0 -48 -4 -72 -12 -74 -180 -48 -268 -94 -363 -190 -122 -124 -182 -254
-192 -421 -20 -323 188 -609 497 -683 l70 -17 0 -74 0 -73 -45 6 c-59 9 -166
46 -235 81 -80 40 -136 81 -200 145 -347 347 -307 921 83 1216 106 80 276 152
365 153 l32 1 0 -70z m295 55 c139 -36 291 -129 391 -239 130 -142 199 -307
210 -501 17 -304 -141 -595 -406 -747 -57 -33 -202 -84 -263 -93 l-47 -7 0 75
0 75 38 6 c113 21 249 93 334 180 150 152 216 345 189 547 -34 262 -198 461
-447 545 -40 13 -82 24 -93 24 -19 0 -21 6 -21 75 l0 75 28 0 c15 0 55 -7 87
-15z m-367 -472 l3 -92 47 -40 c45 -39 50 -41 112 -41 61 1 68 3 110 39 l45
39 5 94 5 93 104 3 c67 2 108 -1 117 -9 18 -15 20 -199 2 -217 -7 -7 -43 -12
-91 -12 -77 0 -79 -1 -128 -42 l-49 -41 0 -81 c0 -45 -4 -87 -8 -94 -6 -9 -37
-12 -118 -10 l-109 3 -5 92 -5 91 -47 41 c-46 41 -47 41 -125 41 -48 0 -84 5
-91 12 -13 13 -17 183 -6 212 5 14 23 16 118 14 l111 -3 3 -92z m-14 -479 c13
-5 16 -25 16 -120 l0 -114 -114 0 c-95 0 -115 3 -120 16 -3 9 -6 58 -6 109 0
79 3 96 18 104 18 11 180 15 206 5z m564 -16 c18 -18 16 -202 -2 -217 -9 -8
-50 -11 -117 -9 l-104 3 -3 104 c-1 58 0 111 2 118 7 18 206 19 224 1z"/>
</g>
</svg>
